HIERARCHY
ROOT hips
{
  OFFSET 0 10.6860622 2.3727825e-15
  CHANNELS 6 Xposition Yposition Zposition Yrotation Xrotation Zrotation
  JOINT leftUpperLeg
  {
    OFFSET 0.6642549969 -0.9402397400000004 0
    CHANNELS 3 Yrotation Xrotation Zrotation
    JOINT leftLowerLeg
    {
      OFFSET 0 -3.997221335632195 0
      CHANNELS 3 Yrotation Xrotation Zrotation
      JOINT leftFoot
      {
        OFFSET -0.13777839790000004 -4.6145792000000005 -0.22186036399999998
        CHANNELS 3 Yrotation Xrotation Zrotation
        JOINT leftToes
        {
          OFFSET -0.03777410834999995 -0.9130806927000008 0.85230013
          CHANNELS 3 Yrotation Xrotation Zrotation
          End Site
          {
            OFFSET -0.03777410834999995 -0.9130806927000008 0.85230013
          }
        }
      }
    }
  }
  JOINT rightUpperLeg
  {
    OFFSET -0.6642778626 -0.9402397400000004 0
    CHANNELS 3 Yrotation Xrotation Zrotation
    JOINT rightLowerLeg
    {
      OFFSET 0 -3.997221452859387 0
      CHANNELS 3 Yrotation Xrotation Zrotation
      JOINT rightFoot
      {
        OFFSET 0.1377926176 -4.6145792000000005 -0.22185782299999995
        CHANNELS 3 Yrotation Xrotation Zrotation
        JOINT rightToes
        {
          OFFSET 0.037780746850000047 -0.9130806927000008 0.85230167
          CHANNELS 3 Yrotation Xrotation Zrotation
          End Site
          {
            OFFSET 0.037780746850000047 -0.9130806927000008 0.85230167
          }
        }
      }
    }
  }
  JOINT spine
  {
    OFFSET 0 0.13988381660000015 0
    CHANNELS 3 Yrotation Xrotation Zrotation
    JOINT chest
    {
      OFFSET 0 0.6191039003973773 0
      CHANNELS 3 Yrotation Xrotation Zrotation
      JOINT upperChest
      {
        OFFSET 0 0.9855186130586943 0
        CHANNELS 3 Yrotation Xrotation Zrotation
        JOINT leftShoulder
        {
          OFFSET 0.1807663869 1.5087829790000005 0
          CHANNELS 3 Yrotation Xrotation Zrotation
          JOINT leftUpperArm
          {
            OFFSET 0.5985063006419806 0 0
            CHANNELS 3 Yrotation Xrotation Zrotation
            JOINT leftLowerArm
            {
              OFFSET 2.2993332369501065 0 0
              CHANNELS 3 Yrotation Xrotation Zrotation
              JOINT leftHand
              {
                OFFSET 2.395047042602395 0 0
                CHANNELS 3 Yrotation Xrotation Zrotation
                JOINT leftIndexProximal
                {
                  OFFSET 0.5766295810000004 0.04556643899499946 0.17265095988184
                  CHANNELS 3 Yrotation Xrotation Zrotation
                  JOINT leftIndexIntermediate
                  {
                    OFFSET 0.2957229000000008 -0.019352197700001517 -0.007932640616999987
                    CHANNELS 3 Yrotation Xrotation Zrotation
                    JOINT leftIndexDistal
                    {
                      OFFSET 0.19008243099999922 -0.012484908149998475 -0.002786250786000012
                      CHANNELS 3 Yrotation Xrotation Zrotation
                      End Site
                      {
                        OFFSET 0.19008243099999922 -0.012484908149998475 -0.002786250786000012
                      }
                    }
                  }
                }
                JOINT leftMiddleProximal
                {
                  OFFSET 0.5834975091000001 0.0524350405149987 0.02204081888183999
                  CHANNELS 3 Yrotation Xrotation Zrotation
                  JOINT leftMiddleIntermediate
                  {
                    OFFSET 0.33880573540000003 -0.019871473270000717 -0.00000971183179999946
                    CHANNELS 3 Yrotation Xrotation Zrotation
                    JOINT leftMiddleDistal
                    {
                      OFFSET 0.20676022730000088 -0.012221336379999448 0.0001471936708000235
                      CHANNELS 3 Yrotation Xrotation Zrotation
                      End Site
                      {
                        OFFSET 0.20676022730000088 -0.012221336379999448 0.0001471936708000235
                      }
                    }
                  }
                }
                JOINT leftLittleProximal
                {
                  OFFSET 0.5344154683999995 -0.012880921405001189 -0.24414037221816004
                  CHANNELS 3 Yrotation Xrotation Zrotation
                  JOINT leftLittleIntermediate
                  {
                    OFFSET 0.21758961730000093 -0.011650919939999227 0.011893592810000034
                    CHANNELS 3 Yrotation Xrotation Zrotation
                    JOINT leftLittleDistal
                    {
                      OFFSET 0.1475273964999999 -0.008152365682999818 0.006001092492999946
                      CHANNELS 3 Yrotation Xrotation Zrotation
                      End Site
                      {
                        OFFSET 0.1475273964999999 -0.008152365682999818 0.006001092492999946
                      }
                    }
                  }
                }
                JOINT leftRingProximal
                {
                  OFFSET 0.5799399463000003 0.026911854694997794 -0.12150566991816003
                  CHANNELS 3 Yrotation Xrotation Zrotation
                  JOINT leftRingIntermediate
                  {
                    OFFSET 0.26167887460000006 -0.013480186499999602 0.010996293000000053
                    CHANNELS 3 Yrotation Xrotation Zrotation
                    JOINT leftRingDistal
                    {
                      OFFSET 0.17667108799999987 -0.008990287899999228 0.0055541023999999065
                      CHANNELS 3 Yrotation Xrotation Zrotation
                      End Site
                      {
                        OFFSET 0.17667108799999987 -0.008990287899999228 0.0055541023999999065
                      }
                    }
                  }
                }
                JOINT leftThumbProximal
                {
                  OFFSET 0.11018806699999972 -0.09448718900500053 0.17047963138184
                  CHANNELS 3 Yrotation Xrotation Zrotation
                  JOINT leftThumbIntermediate
                  {
                    OFFSET 0.31062601459999983 -0.08126270900000132 0.15443142000000007
                    CHANNELS 3 Yrotation Xrotation Zrotation
                    JOINT leftThumbDistal
                    {
                      OFFSET 0.21627175790000086 -0.08833193599999878 0.018771167799999988
                      CHANNELS 3 Yrotation Xrotation Zrotation
                      End Site
                      {
                        OFFSET 0.21627175790000086 -0.08833193599999878 0.018771167799999988
                      }
                    }
                  }
                }
              }
            }
          }
        }
        JOINT neck
        {
          OFFSET 0 1.5463305265074576 0
          CHANNELS 3 Yrotation Xrotation Zrotation
          JOINT head
          {
            OFFSET 0 0.8456443600000344 0
            CHANNELS 3 Yrotation Xrotation Zrotation
            JOINT leftEye
            {
              OFFSET 0.30408573140000006 0.5104519199999995 0.1276382305
              CHANNELS 3 Yrotation Xrotation Zrotation
              End Site
              {
                OFFSET 0.30408573140000006 0.5104519199999995 0.1276382305
              }
            }
            JOINT rightEye
            {
              OFFSET -0.30409491089999996 0.5104519199999995 0.1276379445
              CHANNELS 3 Yrotation Xrotation Zrotation
              End Site
              {
                OFFSET -0.30409491089999996 0.5104519199999995 0.1276379445
              }
            }
            JOINT jaw
            {
              OFFSET -3.155239131000001e-7 -0.11984121820000082 0.60178107
              CHANNELS 3 Yrotation Xrotation Zrotation
              End Site
              {
                OFFSET -3.155239131000001e-7 -0.11984121820000082 0.60178107
              }
            }
          }
        }
        JOINT rightShoulder
        {
          OFFSET -0.1807303465 1.5087829790000005 0
          CHANNELS 3 Yrotation Xrotation Zrotation
          JOINT rightUpperArm
          {
            OFFSET -0.5985063796536958 0 0
            CHANNELS 3 Yrotation Xrotation Zrotation
            JOINT rightLowerArm
            {
              OFFSET -2.2993322059002854 0 0
              CHANNELS 3 Yrotation Xrotation Zrotation
              JOINT rightHand
              {
                OFFSET -2.395045314457259 0 0
                CHANNELS 3 Yrotation Xrotation Zrotation
                JOINT rightIndexProximal
                {
                  OFFSET -0.5764487688300002 0.0441371204405987 0.17361932004999997
                  CHANNELS 3 Yrotation Xrotation Zrotation
                  JOINT rightIndexIntermediate
                  {
                    OFFSET -0.29573011380000047 -0.01934826376999843 -0.007698921482999974
                    CHANNELS 3 Yrotation Xrotation Zrotation
                    JOINT rightIndexDistal
                    {
                      OFFSET -0.19008373999999884 -0.012503266380000655 -0.0026365778999999897
                      CHANNELS 3 Yrotation Xrotation Zrotation
                      End Site
                      {
                        OFFSET -0.19008373999999884 -0.012503266380000655 -0.0026365778999999897
                      }
                    }
                  }
                }
                JOINT rightMiddleProximal
                {
                  OFFSET -0.5834852037300005 0.05211639405060153 0.02307162440000001
                  CHANNELS 3 Yrotation Xrotation Zrotation
                  JOINT rightMiddleIntermediate
                  {
                    OFFSET -0.33880114510000003 -0.019952774050000954 0.0002455003561999819
                    CHANNELS 3 Yrotation Xrotation Zrotation
                    JOINT rightMiddleDistal
                    {
                      OFFSET -0.20675694929999955 -0.012273788999999091 0.00030209124000002766
                      CHANNELS 3 Yrotation Xrotation Zrotation
                      End Site
                      {
                        OFFSET -0.20675694929999955 -0.012273788999999091 0.00030209124000002766
                      }
                    }
                  }
                }
                JOINT rightLittleProximal
                {
                  OFFSET -0.5346811737299992 -0.011214256288399227 -0.24363941305000003
                  CHANNELS 3 Yrotation Xrotation Zrotation
                  JOINT rightLittleIntermediate
                  {
                    OFFSET -0.21757715980000092 -0.011771559690000988 0.01201554387
                    CHANNELS 3 Yrotation Xrotation Zrotation
                    JOINT rightLittleDistal
                    {
                      OFFSET -0.1475201849000004 -0.00822055339600003 0.006082065407000015
                      CHANNELS 3 Yrotation Xrotation Zrotation
                      End Site
                      {
                        OFFSET -0.1475201849000004 -0.00822055339600003 0.006082065407000015
                      }
                    }
                  }
                }
                JOINT rightRingProximal
                {
                  OFFSET -0.5800810755299999 0.027657985680600072 -0.12066365025000003
                  CHANNELS 3 Yrotation Xrotation Zrotation
                  JOINT rightRingIntermediate
                  {
                    OFFSET -0.26166445029999974 -0.013623118409999302 0.011164098990000045
                    CHANNELS 3 Yrotation Xrotation Zrotation
                    JOINT rightRingDistal
                    {
                      OFFSET -0.17666387530000027 -0.009072900100000503 0.005668185599999959
                      CHANNELS 3 Yrotation Xrotation Zrotation
                      End Site
                      {
                        OFFSET -0.17666387530000027 -0.009072900100000503 0.005668185599999959
                      }
                    }
                  }
                }
                JOINT rightThumbProximal
                {
                  OFFSET -0.10997596379000074 -0.09577489355940072 0.16989765924999997
                  CHANNELS 3 Yrotation Xrotation Zrotation
                  JOINT rightThumbIntermediate
                  {
                    OFFSET -0.31036620999999986 -0.08229339117999834 0.15440884469999996
                    CHANNELS 3 Yrotation Xrotation Zrotation
                    JOINT rightThumbDistal
                    {
                      OFFSET -0.21631306399999906 -0.08825326400000111 0.018656797720000014
                      CHANNELS 3 Yrotation Xrotation Zrotation
                      End Site
                      {
                        OFFSET -0.21631306399999906 -0.08825326400000111 0.018656797720000014
                      }
                    }
                  }
                }
              }
            }
          }
        }
      }
    }
  }
}
MOTION
Frames: 4
Frame Time: 0.03333333333333333
-0.01994968019425869 -0.1510289739868167 -0.31632837653160095 -6.635094847518487 9.041453514336562 -1.620118683341177 17.218932268927503 -19.457287022815663 4.614153563986594 6.355454564692498 10.363953688974538 3.921555881321301 1.2338423998204135 0.8128876032194784 -9.821684768594528 0.000015643963826646985 -0.4779464826418767 2.613149448838234e-7 -12.077552097887017 -16.901188582302208 0.6909789452056406 -9.398778347562294 7.83105170198377 -6.029193604078545 -4.344062348712647 1.975755032908377 7.699748124664867 0.000022770527888249762 -0.43578104946697943 -0.0000030172660222517734 -1.3668015275772598 -0.5213984377993666 0.6732513118298457 -2.152843392681618 -1.7662733894421716 0.7009137122077413 0 0 0 -5.655425625094946 1.935617311348498 -8.535408684862723 -50.54531587922103 18.79024118828797 -67.56855761754817 -30.89666572674465 0.10502694386972988 0.38006209172265915 -0.045375938551939936 -34.29985016455559 -3.1797441275103937 -1.3497848986943468 0.14959542673339493 12.64614396856513 2.4347343690799703 0.5010275481470144 -23.25476986946755 1.242853529694097 0.12655957287473465 -11.62995967342523 -1.3514591480772173 0.14997099503958772 12.66215931813307 2.436331244705552 0.5017052035621379 -23.270756588507645 1.2428531029066596 0.12655734505369165 -11.629958000929816 2.6088514191730847 -0.7548472256287587 13.083247841061816 -1.629858363852869 0.504236419788034 -23.712506370416023 1.2428521426349257 0.12656392179485515 -11.629947277506638 -1.3497850053868061 0.14959542673339493 12.64614396856513 2.4347343690799703 0.5010274947841212 -23.25476986946755 1.242853529694097 0.1265595595344889 -11.62995967342523 -22.48961260778225 -7.572389677753645 15.467795542931697 46.85937341087944 14.4107120008013 14.8809410230673 20.362049068896095 6.6521544198794205 6.393330264116022 2.0313768404675137 -2.090304328060261 -1.5413790296071959 7.559223644946753 1.2987712674614724 -1.1761325432209537 0 0 0 0 0 0 0 0 0 2.0932999621334822 1.700002400417878 9.111716337290868 46.61248091743359 12.21611743315416 65.67282478014559 25.13693969506508 0.07008757009055375 -0.3143731401626806 20.713792683820945 -53.056315401516855 -30.089003162613547 1.2848182328893842 0.13384960468300514 -11.89561282341008 -2.6582582781203183 0.5951990455536192 25.23674829561614 -1.362024987531427 0.15062939018830684 12.621702123872552 1.2848182328893842 0.13384963136350436 -11.89561282341008 -2.6582582781203183 0.5951990455536192 25.23674829561614 -1.362024987531427 0.1506293768480475 12.621702123872552 1.2848187663652182 0.13384715007707434 -11.895605304441554 -2.6582616897241365 0.5951962172758123 25.23673766008442 -1.3620232804606922 0.15063620706082217 12.621704623305437 1.2848182328893842 0.13384957800250588 -11.895611987969154 -2.6582584913455576 0.5951990989173515 25.23674829561614 -1.362024987531427 0.15062939018830684 12.621702123872552 -5.275699417588822 2.31276485900524 -2.3842865868371197 -26.500198300355475 27.34532143339509 -26.787525007731105 -6.071500180139134 11.33510059895141 -13.956306375069289
-0.018348101526498795 -0.15160594694824248 -0.31423404812812805 -6.655943386571246 9.048897068324925 -1.731786469403862 17.31678921943236 -19.594877957818284 4.709279613475219 6.386704027845332 10.56146527802527 3.935331124645213 1.0530676377659793 0.6903085416908232 -9.80703214451887 0.0000172514741435306 -0.5158336867364651 -0.0000018831061669730591 -12.07042835740892 -16.85447275508699 0.7913429377617709 -9.403744301088372 7.7822708916504135 -6.015833503499253 -4.3661167003427925 2.030942330416182 7.698200408082241 -4.183871617771617e-8 -0.4788370529583603 -0.000003414488986242472 -1.367376164015872 -0.5267608408714604 0.680098744217042 -2.1543167032656574 -1.7868427864164622 0.66307463685346 0 0 0 -5.668149044918416 1.9375011716358685 -8.538682331522393 -50.393992934274046 18.76438387334192 -67.55663621908614 -30.99515744257163 0.10570025892009226 0.3811659332124081 0.3387536689762615 -34.26262762599807 -3.341855834824762 -1.3497848986943468 0.14959542673339493 12.64614396856513 2.4347343690799703 0.5010275481470144 -23.25476986946755 1.242853529694097 0.12655957287473465 -11.62995967342523 -1.3514591480772173 0.14997099503958772 12.66215931813307 2.436331244705552 0.5017052035621379 -23.270756588507645 1.2428531029066596 0.12655734505369165 -11.629958000929816 2.6088514191730847 -0.7548472256287587 13.083247841061816 -1.629858363852869 0.504236419788034 -23.712506370416023 1.2428521426349257 0.12656392179485515 -11.629947277506638 -1.3497850053868061 0.14959542673339493 12.64614396856513 2.4347343690799703 0.5010274947841212 -23.25476986946755 1.242853529694097 0.1265595595344889 -11.62995967342523 -22.48961260778225 -7.572389677753645 15.467795542931697 46.85937341087944 14.4107120008013 14.8809410230673 20.362049068896095 6.6521544198794205 6.393330264116022 2.0713986058970892 -2.10458835305786 -1.6081756207588203 7.657248561152487 1.1280983695778959 -1.3392767037242457 0 0 0 0 0 0 0 0 0 2.098747144359702 1.7017543687962757 9.146754275168297 46.761170454260125 12.324816059861694 65.64421460539482 25.21013621290025 0.07049213237128776 -0.3152492436155099 20.404043068351985 -53.151817597707044 -29.861661779235625 1.2848182328893842 0.13384960468300514 -11.89561282341008 -2.6582582781203183 0.5951990455536192 25.23674829561614 -1.362024987531427 0.15062939018830684 12.621702123872552 1.2848182328893842 0.13384963136350436 -11.89561282341008 -2.6582582781203183 0.5951990455536192 25.23674829561614 -1.362024987531427 0.1506293768480475 12.621702123872552 1.2848187663652182 0.13384715007707434 -11.895605304441554 -2.6582616897241365 0.5951962172758123 25.23673766008442 -1.3620232804606922 0.15063620706082217 12.621704623305437 1.2848182328893842 0.13384957800250588 -11.895611987969154 -2.6582584913455576 0.5951990989173515 25.23674829561614 -1.362024987531427 0.15062939018830684 12.621702123872552 -5.275699417588822 2.31276485900524 -2.3842865868371197 -26.500198300355475 27.34532143339509 -26.787525007731105 -6.071500180139134 11.33510059895141 -13.956306375069289
-0.015727613121271133 -0.15281997435302763 -0.30955830216407776 -6.601073673608889 9.075340653979229 -1.7949896887008943 17.472942508080813 -19.722384600000446 4.668722387559815 6.216024942272368 10.728573074934037 4.019331820641299 0.9316132183643367 0.5693664695000716 -9.819653729192707 -0.000009702147079909588 -0.5880571150574985 -0.0000033543750547943373 -12.058490767024013 -16.87799160542837 0.822397699912179 -9.42386935024132 7.862932165681789 -6.001677399689846 -4.497850805108711 2.0072116862121385 7.715688648763044 -0.000007610194129102152 -0.5056665995471665 -6.938812953331607e-7 -1.342572678346097 -0.562192233295048 0.5279339958640443 -2.118990884317437 -1.8377266824118126 0.498511333484714 0 0 0 -5.6312114842978565 1.9352950413877745 -8.39006512024961 -50.243525983699854 18.719934137157228 -67.44450002165597 -30.88788162000134 0.1049539527705374 0.37995940084861174 0.8306608602209373 -34.24210565363919 -3.666120642235907 -1.3497848986943468 0.14959542673339493 12.64614396856513 2.4347343690799703 0.5010275481470144 -23.25476986946755 1.242853529694097 0.12655957287473465 -11.62995967342523 -1.3514591480772173 0.14997099503958772 12.66215931813307 2.436331244705552 0.5017052035621379 -23.270756588507645 1.2428531029066596 0.12655734505369165 -11.629958000929816 2.6088514191730847 -0.7548472256287587 13.083247841061816 -1.629858363852869 0.504236419788034 -23.712506370416023 1.2428521426349257 0.12656392179485515 -11.629947277506638 -1.3497850053868061 0.14959542673339493 12.64614396856513 2.4347343690799703 0.5010274947841212 -23.25476986946755 1.242853529694097 0.1265595595344889 -11.62995967342523 -22.48961260778225 -7.572389677753645 15.467795542931697 46.85937341087944 14.4107120008013 14.8809410230673 20.362049068896095 6.6521544198794205 6.393330264116022 2.068127167496445 -1.9890398043796054 -1.4026293238478411 7.886514188944598 0.5283261944817005 -1.8522799125417937 0 0 0 0 0 0 0 0 0 2.121429691840404 1.711578724634403 9.45136506550752 46.8684115703612 12.492662486500015 65.61325192894313 25.314667286499557 0.07106566192587711 -0.31644262617988034 19.825930057301456 -52.91193703780525 -29.449383298726783 1.2848182328893842 0.13384960468300514 -11.89561282341008 -2.6582582781203183 0.5951990455536192 25.23674829561614 -1.362024987531427 0.15062939018830684 12.621702123872552 1.2848182328893842 0.13384963136350436 -11.89561282341008 -2.6582582781203183 0.5951990455536192 25.23674829561614 -1.362024987531427 0.1506293768480475 12.621702123872552 1.2848187663652182 0.13384715007707434 -11.895605304441554 -2.6582616897241365 0.5951962172758123 25.23673766008442 -1.3620232804606922 0.15063620706082217 12.621704623305437 1.2848182328893842 0.13384957800250588 -11.895611987969154 -2.6582584913455576 0.5951990989173515 25.23674829561614 -1.362024987531427 0.15062939018830684 12.621702123872552 -5.275699417588822 2.31276485900524 -2.3842865868371197 -26.500198300355475 27.34532143339509 -26.787525007731105 -6.071500180139134 11.33510059895141 -13.956306375069289
-0.013164202682673931 -0.15401111357421904 -0.30327051877975464 -6.56665533220037 9.057711092444498 -1.8389477604418847 17.572225589399544 -19.780361909562036 4.632630129834008 5.994622566451467 10.901180410009461 4.102923323672681 0.9497638929033325 0.4372695936603485 -9.849353941433787 -0.000007561115084492837 -0.634541226998945 0.0000035318801130739864 -12.024640416250685 -16.866450391194306 0.7609988421982576 -9.443857918861173 7.992866770577185 -5.887448292470892 -4.585808800459612 1.9138267457403768 7.696413796058057 0.00001699710059550304 -0.505900969544807 -0.000002064703817271167 -1.315875443060788 -0.5771478851879607 0.43745870157987576 -2.081257495522181 -1.8562461166310724 0.36098026008331613 0 0 0 -5.60071151567694 1.9321846802482896 -8.31735560296963 -50.135471654998966 18.743851621444318 -67.38824270260828 -30.92602963712057 0.10520768405275548 0.3803724814718292 1.3103296895589636 -34.221968658300334 -4.041398307335111 -1.3497848986943468 0.14959542673339493 12.64614396856513 2.4347343690799703 0.5010275481470144 -23.25476986946755 1.242853529694097 0.12655957287473465 -11.62995967342523 -1.3514591480772173 0.14997099503958772 12.66215931813307 2.436331244705552 0.5017052035621379 -23.270756588507645 1.2428531029066596 0.12655734505369165 -11.629958000929816 2.6088514191730847 -0.7548472256287587 13.083247841061816 -1.629858363852869 0.504236419788034 -23.712506370416023 1.2428521426349257 0.12656392179485515 -11.629947277506638 -1.3497850053868061 0.14959542673339493 12.64614396856513 2.4347343690799703 0.5010274947841212 -23.25476986946755 1.242853529694097 0.1265595595344889 -11.62995967342523 -22.48961260778225 -7.572389677753645 15.467795542931697 46.85937341087944 14.4107120008013 14.8809410230673 20.362049068896095 6.6521544198794205 6.393330264116022 2.115607069128103 -1.8945334005122145 -1.3311224861694675 8.16044619364491 -0.13884670262474091 -2.373043353722024 0 0 0 0 0 0 0 0 0 2.147946526590472 1.7218976890052433 9.747225782075216 46.90202979426439 12.741349727482435 65.53326489812805 25.53518581847389 0.07228909383789796 -0.31903802920252 19.49973455475376 -52.597612202303296 -29.30352969497357 1.2848182328893842 0.13384960468300514 -11.89561282341008 -2.6582582781203183 0.5951990455536192 25.23674829561614 -1.362024987531427 0.15062939018830684 12.621702123872552 1.2848182328893842 0.13384963136350436 -11.89561282341008 -2.6582582781203183 0.5951990455536192 25.23674829561614 -1.362024987531427 0.1506293768480475 12.621702123872552 1.2848187663652182 0.13384715007707434 -11.895605304441554 -2.6582616897241365 0.5951962172758123 25.23673766008442 -1.3620232804606922 0.15063620706082217 12.621704623305437 1.2848182328893842 0.13384957800250588 -11.895611987969154 -2.6582584913455576 0.5951990989173515 25.23674829561614 -1.362024987531427 0.15062939018830684 12.621702123872552 -5.275699417588822 2.31276485900524 -2.3842865868371197 -26.500198300355475 27.34532143339509 -26.787525007731105 -6.071500180139134 11.33510059895141 -13.956306375069289
